<?xml version="1.0" encoding="utf-8"?>
<!-- Generator: Adobe Illustrator 25.2.1, SVG Export Plug-In . SVG Version: 6.00 Build 0)  -->
<svg version="1.1" id="Layer_1" xmlns="http://www.w3.org/2000/svg" xmlns:xlink="http://www.w3.org/1999/xlink" x="0px" y="0px"
	 viewBox="0 0 48 48" style="enable-background:new 0 0 48 48;" xml:space="preserve">
<style type="text/css">
	.st0{fill:#F0EFEF;}
</style>
<g id="_34-Add-image">
	<path class="st0" d="M40.8,34.4H37v-3.9c0-0.7-0.6-1.3-1.3-1.3s-1.3,0.6-1.3,1.3v3.9h-3.9c-0.7,0-1.3,0.6-1.3,1.3s0.6,1.3,1.3,1.3
		h3.9v3.9c0,0.7,0.6,1.3,1.3,1.3s1.3-0.6,1.3-1.3V37h3.9c0.7,0,1.3-0.6,1.3-1.3S41.6,34.4,40.8,34.4z"/>
	<path class="st0" d="M25.3,34.4H9.7c-0.7,0-1.3-0.6-1.3-1.3v-3.4l5.2-5.2l3,3c0.5,0.5,1.3,0.5,1.8,0c0,0,0,0,0,0l6.9-6.9l5.6,5.6
		c0.5,0.5,1.3,0.5,1.8,0s0.5-1.3,0-1.8l-6.5-6.5c-0.5-0.5-1.3-0.5-1.8,0c0,0,0,0,0,0l-6.9,6.9l-3-3c-0.5-0.5-1.3-0.5-1.8,0
		c0,0,0,0,0,0l-4.3,4.3V9.7C8.4,9,9,8.4,9.7,8.4h23.3c0.7,0,1.3,0.6,1.3,1.3v15.6c0,0.7,0.6,1.3,1.3,1.3S37,26,37,25.3V9.7
		c0-2.1-1.7-3.9-3.9-3.9H9.7c-2.1,0-3.9,1.7-3.9,3.9v23.3c0,2.1,1.7,3.9,3.9,3.9h15.6c0.7,0,1.3-0.6,1.3-1.3S26,34.4,25.3,34.4z"/>
	<path class="st0" d="M13.6,14.9c0,2.1,1.7,3.9,3.9,3.9s3.9-1.7,3.9-3.9S19.7,11,17.5,11S13.6,12.8,13.6,14.9z M18.8,14.9
		c0,0.7-0.6,1.3-1.3,1.3c-0.7,0-1.3-0.6-1.3-1.3s0.6-1.3,1.3-1.3C18.2,13.6,18.8,14.2,18.8,14.9z"/>
</g>
</svg>
