<svg id="Layer_1" data-name="Layer 1" xmlns="http://www.w3.org/2000/svg" width="48" height="48" viewBox="0 0 48 48"><defs><style>.cls-1{fill:#f0efef;}</style></defs><path class="cls-1" d="M12.57,38.42a3.16,3.16,0,0,1-2.35-1,3.26,3.26,0,0,1-.78-2.31V23.87c0-1.62,0-3.27,0-4.87s0-3.22,0-4.84v-.11a3.66,3.66,0,0,1,1.08-2.32,3.84,3.84,0,0,1,4-.76c4.34,1.92,8.15,3.7,11.83,5.41s7.48,3.49,11.75,5.38a2.5,2.5,0,0,1,0,4.62c-4.33,1.85-8.24,3.89-12,5.86s-7.74,4-12.16,5.93A3.59,3.59,0,0,1,12.57,38.42ZM11.44,14.18c0,1.63,0,3.26,0,4.84s0,3.22,0,4.83V35.21a1.21,1.21,0,0,0,.26.87,1.32,1.32,0,0,0,1.44.24c4.31-1.84,8.21-3.88,12-5.85s7.75-4,12.17-5.93a.49.49,0,0,0,.33-.47.48.48,0,0,0-.32-.47c-4.31-1.91-8.12-3.69-11.81-5.41S18,14.71,13.77,12.83a1.83,1.83,0,0,0-1.85.34A1.71,1.71,0,0,0,11.44,14.18Z"/></svg>